<svg width="100%" height="100%" viewBox="0 0 80 72" fill="currentColor" xmlns="http://www.w3.org/2000/svg">
<path d="M79.7093 0.190084C79.5791 0.0486776 79.3832 0 79.191 0H0.792303C0.524814 0 0.249508 0.0970718 0.123225 0.332873C-0.0788538 0.710202 -0.00290198 1.06201 0.140383 1.31587C0.259857 1.52754 0.508304 1.61008 0.751363 1.61107L79.065 1.92973C79.3339 1.93083 79.6032 1.83073 79.7548 1.60863C80.1781 0.988321 79.98 0.484181 79.7093 0.190084Z"/>
<path fill-rule="evenodd" clip-rule="evenodd" d="M73.0842 72C73.6365 72 74.0842 71.5523 74.0842 71V69.7914C74.0842 69.2784 73.6961 68.8486 73.1858 68.7965L60.2619 67.4777C59.7516 67.4256 59.3634 66.9958 59.3634 66.4828V64.5321C59.3634 64.233 59.2308 63.9488 58.9947 63.765C57.1296 62.3135 53.4186 59.9513 50.193 59.5158C49.6457 59.4419 49.1965 58.9979 49.1965 58.4456V57.6413C49.1965 57.42 49.2711 57.205 49.4083 57.0313V57.0313C49.5455 56.8575 49.6201 56.6426 49.6201 56.4212V48.9642C49.6201 48.4119 49.1724 47.9642 48.6201 47.9642H48.5961C48.1393 47.9642 47.7405 47.6547 47.6273 47.2121L47.1096 45.189C47.0889 45.108 47.0784 45.0248 47.0784 44.9412V40.4781C47.0784 40.1895 47.2047 39.9184 47.4093 39.7147C49.1581 37.973 51.1566 34.2527 48.5098 30.1906C48.0354 29.4624 48.4729 28.3743 49.3401 28.3167C60.6056 27.5695 79.2524 23.87 79.4892 4.42792C79.4958 3.88328 79.0494 3.43368 78.5047 3.43368H1.35493C0.810246 3.43368 0.363817 3.88328 0.370452 4.42792C0.607288 23.87 19.254 27.5695 30.5196 28.3167C31.3867 28.3743 31.8243 29.4624 31.3498 30.1906C28.703 34.2527 30.7016 37.973 32.4504 39.7147C32.6549 39.9184 32.7812 40.1895 32.7812 40.4781V44.9412C32.7812 45.0248 32.7708 45.108 32.75 45.189L32.2324 47.2121C32.1191 47.6547 31.7204 47.9642 31.2636 47.9642H31.2395C30.6872 47.9642 30.2395 48.4119 30.2395 48.9642V56.4212C30.2395 56.6426 30.3141 56.8575 30.4513 57.0313V57.0313C30.5885 57.205 30.6631 57.42 30.6631 57.6413V58.4456C30.6631 58.9979 30.214 59.4419 29.6666 59.5158C26.4411 59.9513 22.7301 62.3135 20.865 63.765C20.6289 63.9488 20.4962 64.233 20.4962 64.5321V66.4828C20.4962 66.9958 20.1081 67.4256 19.5978 67.4777L6.67389 68.7965C6.16356 68.8486 5.77541 69.2784 5.77541 69.7914V71C5.77541 71.5523 6.22313 72 6.77541 72H73.0842ZM32.3576 66.6006C32.3576 67.1529 31.9099 67.6006 31.3576 67.6006H27.0557C26.3781 67.6006 25.9035 66.934 26.2791 66.3701C27.4824 64.5634 29.7289 63.6955 31.3443 63.4142C31.8962 63.3181 32.3576 63.7687 32.3576 64.329V66.6006ZM47.0784 66.6006C47.0784 67.1529 47.5261 67.6006 48.0784 67.6006H52.2745C52.952 67.6006 53.4274 66.934 53.0554 66.3677C51.8714 64.5654 49.6855 63.698 48.0915 63.4155C47.5399 63.3177 47.0784 63.7687 47.0784 64.329V66.6006ZM34.0325 53.3839C33.9063 53.489 33.8047 53.6232 33.7541 53.7794C33.3602 54.996 34.0419 55.4685 34.511 55.5699C34.5579 55.5801 34.6057 55.5827 34.6536 55.5827H44.9942C45.0422 55.5827 45.09 55.5801 45.1368 55.5699C45.6059 55.4685 46.2877 54.996 45.8938 53.7794C45.8432 53.6232 45.7416 53.489 45.6154 53.3839L41.0418 49.5738C40.5652 49.1253 39.4515 48.5039 38.6889 49.4614C38.6313 49.5336 38.57 49.6038 38.499 49.6629L34.0325 53.3839Z"/>
</svg>
